# xmcd
#
# Track frame offsets:
#	150
#	18584
#	36510
#	59148
#	79913
#	94394
#	111880
#	132521
#	155256
#	171339
#	188884
#
# Disc length: 2758 seconds
# Revision: 0
# Processed by: cddbd v1.5.2PL0 Copyright (c) Steve Scherf et al.
# Submitted via: dBpowerAMP V12.0
#
DISCID=a00ac40b
DTITLE=Doug Seegers - A Story I Got To Tell
DYEAR=2019
DGENRE=Americana
TTITLE0=White Line
TTITLE1=Give it Away
TTITLE2=Demon Seed
TTITLE3=Six Feet Under
TTITLE4=Angel from a Broken Home
TTITLE5=Out on the Street
TTITLE6=My Little Falling Star
TTITLE7=Poor Side of Town
TTITLE8=Rockabilly Bug
TTITLE9=Can't Keep Running (Back to You)
TTITLE10=Life Is a Mystery
EXTD=
EXTT0=
EXTT1=
EXTT2=
EXTT3=
EXTT4=
EXTT5=
EXTT6=
EXTT7=
EXTT8=
EXTT9=
EXTT10=
PLAYORDER=
